<mxfile host="app.diagrams.net" agent="Mozilla/5.0 (Windows NT 10.0; Win64; x64) AppleWebKit/537.36 (KHTML, like Gecko) Chrome/128.0.0.0 Safari/537.36" version="24.7.12">
  <diagram name="Page-1" id="RU-6CQFaG-er7uc6Gajt">
    <mxGraphModel dx="1050" dy="557" grid="1" gridSize="10" guides="1" tooltips="1" connect="1" arrows="1" fold="1" page="1" pageScale="1" pageWidth="850" pageHeight="1100" math="0" shadow="0">
      <root>
        <mxCell id="0" />
        <mxCell id="1" parent="0" />
        <mxCell id="dRvgkQ0w0IxBkRANxn1I-15" value="" style="group" vertex="1" connectable="0" parent="1">
          <mxGeometry x="83" y="130" width="685" height="590" as="geometry" />
        </mxCell>
        <mxCell id="ld0Ph7hijSEVcgJgzZNa-4" value="" style="group" parent="dRvgkQ0w0IxBkRANxn1I-15" vertex="1" connectable="0">
          <mxGeometry x="230" width="110" height="100" as="geometry" />
        </mxCell>
        <mxCell id="ld0Ph7hijSEVcgJgzZNa-1" value="" style="ellipse;whiteSpace=wrap;html=1;" parent="ld0Ph7hijSEVcgJgzZNa-4" vertex="1">
          <mxGeometry width="110" height="100" as="geometry" />
        </mxCell>
        <mxCell id="ld0Ph7hijSEVcgJgzZNa-3" value="&lt;font style=&quot;text-wrap: nowrap; font-size: 15px;&quot;&gt;1.1&lt;/font&gt;&lt;div&gt;&lt;font style=&quot;text-wrap: nowrap; font-size: 15px;&quot;&gt;&amp;nbsp;Request&lt;/font&gt;&lt;div style=&quot;font-size: 15px;&quot;&gt;&lt;font style=&quot;text-wrap: nowrap; font-size: 15px;&quot;&gt;&amp;nbsp;Room&lt;/font&gt;&lt;div style=&quot;text-wrap: nowrap;&quot;&gt;&lt;font style=&quot;font-size: 15px;&quot;&gt;&amp;nbsp;Detail&lt;/font&gt;&lt;/div&gt;&lt;/div&gt;&lt;/div&gt;" style="text;html=1;align=center;verticalAlign=middle;whiteSpace=wrap;rounded=0;" parent="ld0Ph7hijSEVcgJgzZNa-4" vertex="1">
          <mxGeometry x="10" y="15" width="90" height="70" as="geometry" />
        </mxCell>
        <mxCell id="ld0Ph7hijSEVcgJgzZNa-5" value="" style="group" parent="dRvgkQ0w0IxBkRANxn1I-15" vertex="1" connectable="0">
          <mxGeometry x="255" y="140" width="110" height="100" as="geometry" />
        </mxCell>
        <mxCell id="ld0Ph7hijSEVcgJgzZNa-6" value="" style="ellipse;whiteSpace=wrap;html=1;" parent="ld0Ph7hijSEVcgJgzZNa-5" vertex="1">
          <mxGeometry width="110" height="100" as="geometry" />
        </mxCell>
        <mxCell id="ld0Ph7hijSEVcgJgzZNa-7" value="&lt;font style=&quot;text-wrap: nowrap; font-size: 15px;&quot;&gt;1.2&lt;/font&gt;&lt;div&gt;&lt;span style=&quot;font-size: 15px; text-wrap: nowrap;&quot;&gt;Check&lt;/span&gt;&lt;/div&gt;&lt;div&gt;&lt;span style=&quot;font-size: 15px; text-wrap: nowrap;&quot;&gt;Room&lt;/span&gt;&lt;/div&gt;&lt;div&gt;&lt;span style=&quot;font-size: 15px; text-wrap: nowrap;&quot;&gt;Availability&lt;/span&gt;&lt;/div&gt;" style="text;html=1;align=center;verticalAlign=middle;whiteSpace=wrap;rounded=0;" parent="ld0Ph7hijSEVcgJgzZNa-5" vertex="1">
          <mxGeometry x="10" y="15" width="90" height="70" as="geometry" />
        </mxCell>
        <mxCell id="ld0Ph7hijSEVcgJgzZNa-8" value="" style="group" parent="dRvgkQ0w0IxBkRANxn1I-15" vertex="1" connectable="0">
          <mxGeometry x="264" y="260" width="100" height="90" as="geometry" />
        </mxCell>
        <mxCell id="ld0Ph7hijSEVcgJgzZNa-9" value="" style="ellipse;whiteSpace=wrap;html=1;" parent="ld0Ph7hijSEVcgJgzZNa-8" vertex="1">
          <mxGeometry width="100" height="90" as="geometry" />
        </mxCell>
        <mxCell id="ld0Ph7hijSEVcgJgzZNa-10" value="&lt;span style=&quot;font-size: 15px; text-wrap: nowrap;&quot;&gt;1.3&lt;/span&gt;&lt;div&gt;&lt;span style=&quot;font-size: 15px; text-wrap: nowrap;&quot;&gt;Room&lt;/span&gt;&lt;/div&gt;&lt;div&gt;&lt;span style=&quot;font-size: 15px; text-wrap: nowrap;&quot;&gt;Allocate&lt;/span&gt;&lt;/div&gt;" style="text;html=1;align=center;verticalAlign=middle;whiteSpace=wrap;rounded=0;" parent="ld0Ph7hijSEVcgJgzZNa-8" vertex="1">
          <mxGeometry x="9.09090909090909" y="13.5" width="81.81818181818181" height="63" as="geometry" />
        </mxCell>
        <mxCell id="ld0Ph7hijSEVcgJgzZNa-11" value="" style="group" parent="dRvgkQ0w0IxBkRANxn1I-15" vertex="1" connectable="0">
          <mxGeometry x="265" y="380" width="100" height="90" as="geometry" />
        </mxCell>
        <mxCell id="ld0Ph7hijSEVcgJgzZNa-12" value="" style="ellipse;whiteSpace=wrap;html=1;" parent="ld0Ph7hijSEVcgJgzZNa-11" vertex="1">
          <mxGeometry width="100.00000000000001" height="90" as="geometry" />
        </mxCell>
        <mxCell id="ld0Ph7hijSEVcgJgzZNa-13" value="&lt;span style=&quot;font-size: 15px; text-wrap: nowrap;&quot;&gt;1.4&lt;/span&gt;&lt;div&gt;&lt;span style=&quot;font-size: 15px; text-wrap: nowrap;&quot;&gt;Notify&lt;/span&gt;&lt;/div&gt;&lt;div&gt;&lt;span style=&quot;font-size: 15px; text-wrap: nowrap;&quot;&gt;Student&lt;/span&gt;&lt;/div&gt;" style="text;html=1;align=center;verticalAlign=middle;whiteSpace=wrap;rounded=0;" parent="ld0Ph7hijSEVcgJgzZNa-11" vertex="1">
          <mxGeometry x="9.09090909090909" y="13.5" width="81.81818181818183" height="63" as="geometry" />
        </mxCell>
        <mxCell id="ld0Ph7hijSEVcgJgzZNa-18" value="" style="group" parent="dRvgkQ0w0IxBkRANxn1I-15" vertex="1" connectable="0">
          <mxGeometry x="265" y="490" width="110" height="100" as="geometry" />
        </mxCell>
        <mxCell id="ld0Ph7hijSEVcgJgzZNa-19" value="" style="ellipse;whiteSpace=wrap;html=1;" parent="ld0Ph7hijSEVcgJgzZNa-18" vertex="1">
          <mxGeometry width="110" height="100" as="geometry" />
        </mxCell>
        <mxCell id="ld0Ph7hijSEVcgJgzZNa-20" value="&lt;span style=&quot;font-size: 15px; text-wrap: nowrap;&quot;&gt;1.5&lt;/span&gt;&lt;div&gt;&lt;span style=&quot;font-size: 15px; text-wrap: nowrap;&quot;&gt;Update&lt;/span&gt;&lt;/div&gt;&lt;div&gt;&lt;span style=&quot;font-size: 15px; text-wrap: nowrap;&quot;&gt;System&lt;/span&gt;&lt;/div&gt;&lt;div&gt;&lt;span style=&quot;font-size: 15px; text-wrap: nowrap;&quot;&gt;Records&lt;/span&gt;&lt;/div&gt;" style="text;html=1;align=center;verticalAlign=middle;whiteSpace=wrap;rounded=0;" parent="ld0Ph7hijSEVcgJgzZNa-18" vertex="1">
          <mxGeometry x="10" y="15" width="90" height="70" as="geometry" />
        </mxCell>
        <mxCell id="ld0Ph7hijSEVcgJgzZNa-21" value="&lt;font style=&quot;font-size: 14px;&quot;&gt;Room Data Store DB&lt;/font&gt;" style="shape=partialRectangle;whiteSpace=wrap;html=1;left=0;right=0;fillColor=none;" parent="dRvgkQ0w0IxBkRANxn1I-15" vertex="1">
          <mxGeometry x="545" y="30" width="140" height="40" as="geometry" />
        </mxCell>
        <mxCell id="ld0Ph7hijSEVcgJgzZNa-22" value="&lt;font style=&quot;font-size: 14px;&quot;&gt;Room Allocation&amp;nbsp;&lt;/font&gt;&lt;div&gt;&lt;font style=&quot;font-size: 14px;&quot;&gt;Data Store DB&lt;/font&gt;&lt;/div&gt;" style="shape=partialRectangle;whiteSpace=wrap;html=1;left=0;right=0;fillColor=none;" parent="dRvgkQ0w0IxBkRANxn1I-15" vertex="1">
          <mxGeometry x="545" y="290" width="140" height="40" as="geometry" />
        </mxCell>
        <mxCell id="ld0Ph7hijSEVcgJgzZNa-23" value="&lt;font style=&quot;font-size: 14px;&quot;&gt;Notification Data Store DB&lt;/font&gt;" style="shape=partialRectangle;whiteSpace=wrap;html=1;left=0;right=0;fillColor=none;" parent="dRvgkQ0w0IxBkRANxn1I-15" vertex="1">
          <mxGeometry x="545" y="420" width="140" height="40" as="geometry" />
        </mxCell>
        <mxCell id="ld0Ph7hijSEVcgJgzZNa-24" value="&lt;font style=&quot;font-size: 14px;&quot;&gt;Student Records&amp;nbsp;&lt;/font&gt;&lt;div&gt;&lt;font style=&quot;font-size: 14px;&quot;&gt;Data Store DB&lt;/font&gt;&lt;/div&gt;" style="shape=partialRectangle;whiteSpace=wrap;html=1;left=0;right=0;fillColor=none;" parent="dRvgkQ0w0IxBkRANxn1I-15" vertex="1">
          <mxGeometry x="543" y="520" width="140" height="40" as="geometry" />
        </mxCell>
        <mxCell id="ld0Ph7hijSEVcgJgzZNa-26" value="&lt;font style=&quot;font-size: 14px;&quot;&gt;Hostelier/Student&lt;/font&gt;" style="rounded=0;whiteSpace=wrap;html=1;" parent="dRvgkQ0w0IxBkRANxn1I-15" vertex="1">
          <mxGeometry y="160" width="120" height="40" as="geometry" />
        </mxCell>
        <mxCell id="ld0Ph7hijSEVcgJgzZNa-27" value="&lt;span style=&quot;font-size: 14px;&quot;&gt;Admin&lt;/span&gt;" style="rounded=0;whiteSpace=wrap;html=1;" parent="dRvgkQ0w0IxBkRANxn1I-15" vertex="1">
          <mxGeometry y="362" width="120" height="40" as="geometry" />
        </mxCell>
        <mxCell id="ld0Ph7hijSEVcgJgzZNa-28" value="" style="endArrow=classic;html=1;rounded=0;exitX=0.5;exitY=0;exitDx=0;exitDy=0;entryX=0;entryY=0.5;entryDx=0;entryDy=0;" parent="dRvgkQ0w0IxBkRANxn1I-15" source="ld0Ph7hijSEVcgJgzZNa-26" target="ld0Ph7hijSEVcgJgzZNa-1" edge="1">
          <mxGeometry width="50" height="50" relative="1" as="geometry">
            <mxPoint x="240" y="60" as="sourcePoint" />
            <mxPoint x="290" y="10" as="targetPoint" />
            <Array as="points">
              <mxPoint x="60" y="50" />
            </Array>
          </mxGeometry>
        </mxCell>
        <mxCell id="ld0Ph7hijSEVcgJgzZNa-30" value="Room Request Detail" style="text;html=1;align=center;verticalAlign=middle;whiteSpace=wrap;rounded=0;" parent="dRvgkQ0w0IxBkRANxn1I-15" vertex="1">
          <mxGeometry x="46" y="25" width="160" height="25" as="geometry" />
        </mxCell>
        <mxCell id="ld0Ph7hijSEVcgJgzZNa-37" value="" style="endArrow=classic;html=1;rounded=0;exitX=1;exitY=0.5;exitDx=0;exitDy=0;" parent="dRvgkQ0w0IxBkRANxn1I-15" edge="1">
          <mxGeometry width="50" height="50" relative="1" as="geometry">
            <mxPoint x="338" y="39" as="sourcePoint" />
            <mxPoint x="535" y="40" as="targetPoint" />
          </mxGeometry>
        </mxCell>
        <mxCell id="ld0Ph7hijSEVcgJgzZNa-39" value="Find Room Detail" style="text;html=1;align=center;verticalAlign=middle;whiteSpace=wrap;rounded=0;" parent="dRvgkQ0w0IxBkRANxn1I-15" vertex="1">
          <mxGeometry x="365" y="20" width="130" height="20" as="geometry" />
        </mxCell>
        <mxCell id="ld0Ph7hijSEVcgJgzZNa-41" value="" style="endArrow=classic;html=1;rounded=0;" parent="dRvgkQ0w0IxBkRANxn1I-15" edge="1">
          <mxGeometry width="50" height="50" relative="1" as="geometry">
            <mxPoint x="538" y="60" as="sourcePoint" />
            <mxPoint x="338" y="60" as="targetPoint" />
          </mxGeometry>
        </mxCell>
        <mxCell id="ld0Ph7hijSEVcgJgzZNa-42" value="Return Room Data" style="text;html=1;align=center;verticalAlign=middle;whiteSpace=wrap;rounded=0;" parent="dRvgkQ0w0IxBkRANxn1I-15" vertex="1">
          <mxGeometry x="365" y="60" width="130" height="20" as="geometry" />
        </mxCell>
        <mxCell id="ld0Ph7hijSEVcgJgzZNa-43" value="" style="endArrow=classic;html=1;rounded=0;entryX=0.675;entryY=-0.015;entryDx=0;entryDy=0;entryPerimeter=0;" parent="dRvgkQ0w0IxBkRANxn1I-15" target="ld0Ph7hijSEVcgJgzZNa-26" edge="1">
          <mxGeometry width="50" height="50" relative="1" as="geometry">
            <mxPoint x="235" y="70" as="sourcePoint" />
            <mxPoint x="340" y="150" as="targetPoint" />
            <Array as="points">
              <mxPoint x="81" y="70" />
            </Array>
          </mxGeometry>
        </mxCell>
        <mxCell id="ld0Ph7hijSEVcgJgzZNa-44" value="Room Detail" style="text;html=1;align=center;verticalAlign=middle;whiteSpace=wrap;rounded=0;" parent="dRvgkQ0w0IxBkRANxn1I-15" vertex="1">
          <mxGeometry x="85" y="70" width="110" height="25" as="geometry" />
        </mxCell>
        <mxCell id="ld0Ph7hijSEVcgJgzZNa-45" value="&lt;span style=&quot;font-size: 14px;&quot;&gt;Check Available Room DB&lt;/span&gt;" style="shape=partialRectangle;whiteSpace=wrap;html=1;left=0;right=0;fillColor=none;" parent="dRvgkQ0w0IxBkRANxn1I-15" vertex="1">
          <mxGeometry x="545" y="160" width="140" height="40" as="geometry" />
        </mxCell>
        <mxCell id="ld0Ph7hijSEVcgJgzZNa-46" value="" style="endArrow=classic;html=1;rounded=0;exitX=1;exitY=0.5;exitDx=0;exitDy=0;entryX=-0.004;entryY=0.418;entryDx=0;entryDy=0;entryPerimeter=0;" parent="dRvgkQ0w0IxBkRANxn1I-15" source="ld0Ph7hijSEVcgJgzZNa-26" target="ld0Ph7hijSEVcgJgzZNa-6" edge="1">
          <mxGeometry width="50" height="50" relative="1" as="geometry">
            <mxPoint x="315" y="260" as="sourcePoint" />
            <mxPoint x="365" y="210" as="targetPoint" />
          </mxGeometry>
        </mxCell>
        <mxCell id="ld0Ph7hijSEVcgJgzZNa-47" value="Enter Room Detail" style="text;html=1;align=center;verticalAlign=middle;whiteSpace=wrap;rounded=0;" parent="dRvgkQ0w0IxBkRANxn1I-15" vertex="1">
          <mxGeometry x="122" y="163" width="113" height="20" as="geometry" />
        </mxCell>
        <mxCell id="ld0Ph7hijSEVcgJgzZNa-50" value="" style="endArrow=classic;html=1;rounded=0;exitX=1;exitY=0.5;exitDx=0;exitDy=0;" parent="dRvgkQ0w0IxBkRANxn1I-15" edge="1">
          <mxGeometry width="50" height="50" relative="1" as="geometry">
            <mxPoint x="361" y="171.5" as="sourcePoint" />
            <mxPoint x="535" y="170" as="targetPoint" />
          </mxGeometry>
        </mxCell>
        <mxCell id="ld0Ph7hijSEVcgJgzZNa-51" value="Find Room Available" style="text;html=1;align=center;verticalAlign=middle;whiteSpace=wrap;rounded=0;" parent="dRvgkQ0w0IxBkRANxn1I-15" vertex="1">
          <mxGeometry x="375" y="151" width="130" height="20" as="geometry" />
        </mxCell>
        <mxCell id="ld0Ph7hijSEVcgJgzZNa-52" value="" style="endArrow=classic;html=1;rounded=0;" parent="dRvgkQ0w0IxBkRANxn1I-15" edge="1">
          <mxGeometry width="50" height="50" relative="1" as="geometry">
            <mxPoint x="535" y="190" as="sourcePoint" />
            <mxPoint x="365" y="189.5" as="targetPoint" />
          </mxGeometry>
        </mxCell>
        <mxCell id="ld0Ph7hijSEVcgJgzZNa-53" value="Not Available" style="text;html=1;align=center;verticalAlign=middle;whiteSpace=wrap;rounded=0;" parent="dRvgkQ0w0IxBkRANxn1I-15" vertex="1">
          <mxGeometry x="395" y="190" width="100" height="20" as="geometry" />
        </mxCell>
        <mxCell id="ld0Ph7hijSEVcgJgzZNa-55" value="" style="endArrow=classic;html=1;rounded=0;entryX=0.097;entryY=0.94;entryDx=0;entryDy=0;exitX=0;exitY=1;exitDx=0;exitDy=0;entryPerimeter=0;" parent="dRvgkQ0w0IxBkRANxn1I-15" target="ld0Ph7hijSEVcgJgzZNa-47" edge="1">
          <mxGeometry width="50" height="50" relative="1" as="geometry">
            <mxPoint x="270" y="225" as="sourcePoint" />
            <mxPoint x="95" y="200" as="targetPoint" />
            <Array as="points">
              <mxPoint x="133" y="225" />
            </Array>
          </mxGeometry>
        </mxCell>
        <mxCell id="ld0Ph7hijSEVcgJgzZNa-56" value="Re-enter Room Detail" style="text;html=1;align=center;verticalAlign=middle;whiteSpace=wrap;rounded=0;" parent="dRvgkQ0w0IxBkRANxn1I-15" vertex="1">
          <mxGeometry x="139" y="200" width="120" height="30" as="geometry" />
        </mxCell>
        <mxCell id="ld0Ph7hijSEVcgJgzZNa-57" value="" style="endArrow=classic;html=1;rounded=0;entryX=0.938;entryY=0.26;entryDx=0;entryDy=0;entryPerimeter=0;" parent="dRvgkQ0w0IxBkRANxn1I-15" target="ld0Ph7hijSEVcgJgzZNa-9" edge="1">
          <mxGeometry width="50" height="50" relative="1" as="geometry">
            <mxPoint x="535" y="210" as="sourcePoint" />
            <mxPoint x="365" y="280" as="targetPoint" />
          </mxGeometry>
        </mxCell>
        <mxCell id="ld0Ph7hijSEVcgJgzZNa-58" value="Return To&amp;nbsp;&lt;span style=&quot;background-color: initial;&quot;&gt;Room Allocation&lt;/span&gt;" style="text;html=1;align=center;verticalAlign=middle;whiteSpace=wrap;rounded=0;rotation=-25;" parent="dRvgkQ0w0IxBkRANxn1I-15" vertex="1">
          <mxGeometry x="373" y="242" width="170" height="20" as="geometry" />
        </mxCell>
        <mxCell id="ld0Ph7hijSEVcgJgzZNa-59" value="" style="endArrow=classic;html=1;rounded=0;exitX=1;exitY=0.5;exitDx=0;exitDy=0;" parent="dRvgkQ0w0IxBkRANxn1I-15" edge="1">
          <mxGeometry width="50" height="50" relative="1" as="geometry">
            <mxPoint x="365" y="309.5" as="sourcePoint" />
            <mxPoint x="545" y="311" as="targetPoint" />
          </mxGeometry>
        </mxCell>
        <mxCell id="ld0Ph7hijSEVcgJgzZNa-60" value="Allocate Room" style="text;html=1;align=center;verticalAlign=middle;whiteSpace=wrap;rounded=0;" parent="dRvgkQ0w0IxBkRANxn1I-15" vertex="1">
          <mxGeometry x="392.5" y="290" width="95" height="20" as="geometry" />
        </mxCell>
        <mxCell id="ld0Ph7hijSEVcgJgzZNa-61" value="" style="endArrow=classic;html=1;rounded=0;entryX=0.938;entryY=0.26;entryDx=0;entryDy=0;entryPerimeter=0;" parent="dRvgkQ0w0IxBkRANxn1I-15" edge="1">
          <mxGeometry width="50" height="50" relative="1" as="geometry">
            <mxPoint x="535" y="330" as="sourcePoint" />
            <mxPoint x="358" y="403" as="targetPoint" />
          </mxGeometry>
        </mxCell>
        <mxCell id="ld0Ph7hijSEVcgJgzZNa-62" value="Return Date" style="text;html=1;align=center;verticalAlign=middle;whiteSpace=wrap;rounded=0;rotation=-25;" parent="dRvgkQ0w0IxBkRANxn1I-15" vertex="1">
          <mxGeometry x="373" y="362" width="170" height="20" as="geometry" />
        </mxCell>
        <mxCell id="dRvgkQ0w0IxBkRANxn1I-3" value="" style="endArrow=classic;html=1;rounded=0;exitX=1;exitY=0.5;exitDx=0;exitDy=0;" edge="1" parent="dRvgkQ0w0IxBkRANxn1I-15">
          <mxGeometry width="50" height="50" relative="1" as="geometry">
            <mxPoint x="363" y="439.25" as="sourcePoint" />
            <mxPoint x="543" y="440.75" as="targetPoint" />
          </mxGeometry>
        </mxCell>
        <mxCell id="dRvgkQ0w0IxBkRANxn1I-4" value="Add Date Log" style="text;html=1;align=center;verticalAlign=middle;whiteSpace=wrap;rounded=0;" vertex="1" parent="dRvgkQ0w0IxBkRANxn1I-15">
          <mxGeometry x="400" y="419.5" width="90" height="25" as="geometry" />
        </mxCell>
        <mxCell id="dRvgkQ0w0IxBkRANxn1I-5" value="" style="endArrow=classic;html=1;rounded=0;entryX=0.938;entryY=0.26;entryDx=0;entryDy=0;entryPerimeter=0;exitX=0.955;exitY=0.242;exitDx=0;exitDy=0;exitPerimeter=0;" edge="1" parent="dRvgkQ0w0IxBkRANxn1I-15" source="dRvgkQ0w0IxBkRANxn1I-6">
          <mxGeometry width="50" height="50" relative="1" as="geometry">
            <mxPoint x="550" y="450" as="sourcePoint" />
            <mxPoint x="373" y="523" as="targetPoint" />
          </mxGeometry>
        </mxCell>
        <mxCell id="dRvgkQ0w0IxBkRANxn1I-6" value="Return Notification" style="text;html=1;align=center;verticalAlign=middle;whiteSpace=wrap;rounded=0;rotation=-25;" vertex="1" parent="dRvgkQ0w0IxBkRANxn1I-15">
          <mxGeometry x="388" y="482" width="170" height="20" as="geometry" />
        </mxCell>
        <mxCell id="dRvgkQ0w0IxBkRANxn1I-7" value="" style="endArrow=classic;html=1;rounded=0;exitX=1;exitY=0.5;exitDx=0;exitDy=0;" edge="1" parent="dRvgkQ0w0IxBkRANxn1I-15">
          <mxGeometry width="50" height="50" relative="1" as="geometry">
            <mxPoint x="375" y="539.5" as="sourcePoint" />
            <mxPoint x="535" y="541" as="targetPoint" />
          </mxGeometry>
        </mxCell>
        <mxCell id="dRvgkQ0w0IxBkRANxn1I-8" value="Update Student Data" style="text;html=1;align=center;verticalAlign=middle;whiteSpace=wrap;rounded=0;" vertex="1" parent="dRvgkQ0w0IxBkRANxn1I-15">
          <mxGeometry x="392.5" y="520" width="122.5" height="20" as="geometry" />
        </mxCell>
        <mxCell id="dRvgkQ0w0IxBkRANxn1I-9" value="" style="endArrow=classic;html=1;rounded=0;" edge="1" parent="dRvgkQ0w0IxBkRANxn1I-15">
          <mxGeometry width="50" height="50" relative="1" as="geometry">
            <mxPoint x="535" y="550" as="sourcePoint" />
            <mxPoint x="373" y="550" as="targetPoint" />
          </mxGeometry>
        </mxCell>
        <mxCell id="dRvgkQ0w0IxBkRANxn1I-10" value="Return Updated Data" style="text;html=1;align=center;verticalAlign=middle;whiteSpace=wrap;rounded=0;" vertex="1" parent="dRvgkQ0w0IxBkRANxn1I-15">
          <mxGeometry x="392" y="548.5" width="122" height="20" as="geometry" />
        </mxCell>
        <mxCell id="dRvgkQ0w0IxBkRANxn1I-11" value="" style="endArrow=classic;html=1;rounded=0;entryX=0.25;entryY=1;entryDx=0;entryDy=0;" edge="1" parent="dRvgkQ0w0IxBkRANxn1I-15">
          <mxGeometry width="50" height="50" relative="1" as="geometry">
            <mxPoint x="270" y="560" as="sourcePoint" />
            <mxPoint x="35" y="402" as="targetPoint" />
            <Array as="points">
              <mxPoint x="35" y="560" />
            </Array>
          </mxGeometry>
        </mxCell>
        <mxCell id="dRvgkQ0w0IxBkRANxn1I-12" value="Return Updated Student Data" style="text;html=1;align=center;verticalAlign=middle;whiteSpace=wrap;rounded=0;" vertex="1" parent="dRvgkQ0w0IxBkRANxn1I-15">
          <mxGeometry x="59" y="540" width="169" height="20" as="geometry" />
        </mxCell>
        <mxCell id="dRvgkQ0w0IxBkRANxn1I-13" value="" style="endArrow=classic;html=1;rounded=0;exitX=0;exitY=0;exitDx=0;exitDy=0;" edge="1" parent="dRvgkQ0w0IxBkRANxn1I-15">
          <mxGeometry width="50" height="50" relative="1" as="geometry">
            <mxPoint x="278" y="508" as="sourcePoint" />
            <mxPoint x="63" y="203" as="targetPoint" />
          </mxGeometry>
        </mxCell>
        <mxCell id="dRvgkQ0w0IxBkRANxn1I-14" value="Return Updated Student Data" style="text;html=1;align=center;verticalAlign=middle;whiteSpace=wrap;rounded=0;rotation=55;" vertex="1" parent="dRvgkQ0w0IxBkRANxn1I-15">
          <mxGeometry x="87" y="330" width="169" height="20" as="geometry" />
        </mxCell>
      </root>
    </mxGraphModel>
  </diagram>
</mxfile>
